HIERARCHY
ROOT Hips
{
  OFFSET 3.13124 94.3669 -3.18751
  CHANNELS  6 Xposition Yposition Zposition Zrotation Xrotation Yrotation
  JOINT LeftUpLeg
  {
    OFFSET 8.64259 1.95398 -2.38835
    CHANNELS 3 Zrotation Xrotation Yrotation
    JOINT LeftLeg
    {
      OFFSET 43.7702 0 0
      CHANNELS 3 Zrotation Xrotation Yrotation
      JOINT LeftFoot
      {
        OFFSET 40.6238 0 0
        CHANNELS 3 Zrotation Xrotation Yrotation
        JOINT LeftToeBase
        {
          OFFSET 12.7242 0 0
          CHANNELS 3 Zrotation Xrotation Yrotation
          End Site
          {
            OFFSET 0 0 0
          }
        }
      }
    }
  }
  JOINT RightUpLeg
  {
    OFFSET -8.2249 1.95398 -2.59336
    CHANNELS 3 Zrotation Xrotation Yrotation
    JOINT RightLeg
    {
      OFFSET 43.5653 0 0
      CHANNELS 3 Zrotation Xrotation Yrotation
      JOINT RightFoot
      {
        OFFSET 40.6238 0 0
        CHANNELS 3 Zrotation Xrotation Yrotation
        JOINT RightToeBase
        {
          OFFSET 12.7242 0 0
          CHANNELS 3 Zrotation Xrotation Yrotation
          End Site
          {
            OFFSET 0 0 0
          }
        }
      }
    }
  }
  JOINT Spine
  {
    OFFSET 0.165834 0.87714 6.61349
    CHANNELS 3 Zrotation Xrotation Yrotation
    JOINT Spine1
    {
      OFFSET 7.38962 1.71661e-005 0
      CHANNELS 3 Zrotation Xrotation Yrotation
      JOINT Spine2
      {
        OFFSET 11.9445 1.14441e-005 0
        CHANNELS 3 Zrotation Xrotation Yrotation
        JOINT Spine3
        {
          OFFSET 14.7254 4.19617e-005 0
          CHANNELS 3 Zrotation Xrotation Yrotation
          JOINT Spine4
          {
            OFFSET 10.9679 0 0
            CHANNELS 3 Zrotation Xrotation Yrotation
            JOINT RightShoulder
            {
              OFFSET 2.46616 -1.6653 3.69651
              CHANNELS 3 Zrotation Xrotation Yrotation
              JOINT RightArm
              {
                OFFSET 13.0012 0 0
                CHANNELS 3 Zrotation Xrotation Yrotation
                JOINT RightForeArm
                {
                  OFFSET 28.7848 1.52588e-005 0
                  CHANNELS 3 Zrotation Xrotation Yrotation
                  JOINT RightHand
                  {
                    OFFSET 26.5688 1.52588e-005 0
                    CHANNELS 3 Zrotation Xrotation Yrotation
                    End Site
                    {
                      OFFSET 0 0 0
                    }
                  }
                }
              }
            }
            JOINT LeftShoulder
            {
              OFFSET 2.38034 -1.29275 -3.75231
              CHANNELS 3 Zrotation Xrotation Yrotation
              JOINT LeftArm
              {
                OFFSET 16.3182 6.10352e-005 0
                CHANNELS 3 Zrotation Xrotation Yrotation
                JOINT LeftForeArm
                {
                  OFFSET 27.0901 0 0
                  CHANNELS 3 Zrotation Xrotation Yrotation
                  JOINT LeftHand
                  {
                    OFFSET 24.5451 1.52588e-005 0
                    CHANNELS 3 Zrotation Xrotation Yrotation
                    End Site
                    {
                      OFFSET 0 0 0
                    }
                  }
                }
              }
            }
            JOINT Neck
            {
              OFFSET 5.0226 -0.0266342 0
              CHANNELS 3 Zrotation Xrotation Yrotation
              JOINT Head
              {
                OFFSET 6.69363 2.86102e-005 0
                CHANNELS 3 Zrotation Xrotation Yrotation
                End Site
                {
                  OFFSET 0 0 0
                }
              }
            }
          }
        }
      }
    }
  }
}
MOTION
Frames:	15
Frame Time:	0.0333333
-11.2002 96.6352 -9.14126 -153.245 -89.9985 -153.244 -179.041 1.76799 91.6119 -7.29401 0.830133 0.0596801 62.5762 1.5052 0.7643 28.7808 5.57721e-006 2.94402e-006 177.981 1.87487 86.3385 -7.29034 -1.97994 -0.112791 62.5694 -1.30984 -0.666832 28.7808 1.38713e-005 2.01435e-005 -1.92024e-005 6.34022 -90.0002 14.1934 0.00101355 -1.08869e-006 2.5225 -3.48913e-006 -1.03421e-006 -20.0126 -0.00654246 1.76776e-005 -2.83754e-006 -0.00653978 -2.04821e-005 100.983 -18.9566 -85.0715 -1.94248 27.1353 -11.9549 -7.06174 -28.4953 -10.3701 2.04827 0.12652 1.5189 -79.2868 -21.8311 93.658 9.60936 -27.6831 -7.50041 5.67404 27.8657 -9.76348 -2.10438 -0.0881743 1.62302 1.75301 0.000353211 -0.00075956 -7.41067 0.000316768 0.000861103 
-11.2013 96.6577 -9.11459 -153.302 -89.9743 -153.277 -179.009 1.38811 91.6547 -6.5852 1.0026 0.0596829 62.2626 1.43833 0.719666 28.7808 5.57721e-006 2.94402e-006 177.957 1.44793 86.3671 -6.48442 -2.04485 -0.112795 62.1594 -1.35856 -0.689824 28.7808 1.38713e-005 2.01435e-005 7.21636e-005 6.34022 -90.0013 14.1934 0.00101355 -1.08869e-006 2.5225 -3.48913e-006 -1.03421e-006 -20.0126 -0.00654246 1.76776e-005 -2.83754e-006 -0.00653978 -2.04821e-005 100.956 -19.0013 -85.0692 -1.94902 27.1006 -11.9382 -7.01311 -28.5994 -10.2371 1.85999 0.112478 1.37322 -79.299 -21.8096 93.6958 9.55018 -27.704 -7.27296 5.92127 28.0937 -10.2048 -2.19582 -0.0881693 1.73527 1.69111 0.0309827 -0.0685696 -7.39008 0.0267598 0.0770787 
-11.1972 96.6637 -9.1025 -154.213 -89.9593 -154.172 -179.006 1.46479 91.6726 -6.79056 1.00916 0.0596831 62.3419 1.42421 0.713642 28.7808 5.57721e-006 2.94402e-006 177.938 1.22064 86.3776 -6.05667 -2.05621 -0.112796 61.9325 -1.33186 -0.669621 28.7808 1.38713e-005 2.01435e-005 0.000696631 6.34021 -90.0091 14.1934 0.00101355 -1.08869e-006 2.5225 -3.48913e-006 -1.03421e-006 -20.0126 -0.00654246 1.76776e-005 -2.83754e-006 -0.00653978 -2.04821e-005 100.952 -19.0279 -85.0386 -1.97314 27.1263 -11.8694 -7.07841 -28.633 -10.3593 1.96252 0.11836 1.37687 -79.3029 -21.8217 93.7229 9.51321 -27.7182 -7.18724 5.99963 27.9901 -10.4016 -2.33276 -0.0881671 1.89912 1.72463 0.0303431 -0.0695366 -7.41133 0.0203009 0.0776534 
-11.1956 96.6758 -9.09451 -138.607 -89.9542 -138.564 -178.995 1.06679 91.6742 -5.97859 1.00534 0.059683 61.9662 1.415 0.699798 28.7808 5.57721e-006 2.94402e-006 177.91 0.881533 86.3831 -5.35144 -2.07119 -0.112797 61.5818 -1.34715 -0.672847 28.7808 1.38713e-005 2.01435e-005 0.000541999 6.34021 -90.0073 14.1934 0.00101355 -1.08859e-006 2.5225 -3.48913e-006 -1.0685e-006 -20.0126 -0.00654246 1.74133e-005 -2.81191e-006 -0.00653978 -2.04796e-005 100.959 -19.0125 -85.0105 -2.00934 27.0308 -12.1291 -6.74268 -28.6256 -9.67754 1.71302 0.0986872 1.10414 -79.2794 -21.8266 93.788 9.49553 -27.7175 -7.19344 6.00967 27.9924 -10.4216 -2.35254 -0.0894403 1.88747 1.81181 0.0388763 -0.0911471 -7.46152 0.0237274 0.101213 
-11.1949 96.6778 -9.09402 -97.7543 -89.938 -97.6968 -178.994 1.19268 91.6842 -6.19147 0.929428 0.0596817 62.0557 1.41857 0.704158 28.7808 5.57721e-006 2.94402e-006 177.916 0.894122 86.3953 -5.32077 -2.10083 -0.112799 61.5534 -1.32591 -0.660309 28.7808 1.38713e-005 2.01435e-005 0.000626204 6.34021 -90.0079 14.1933 0.00101355 0.000174916 2.52233 -3.48913e-006 0.000168047 -20.0128 -0.00654246 0.00018631 -0.00017593 -0.00653978 0.000183374 100.979 -19.0286 -84.9693 -2.05443 27.1322 -11.9202 -7.02306 -28.8441 -10.2016 1.93361 0.115972 1.34404 -79.2586 -21.7275 93.8328 9.46533 -27.7128 -7.02862 6.13065 28.0794 -10.643 -2.39708 -0.0918676 1.84183 2.00411 0.0636774 -0.132767 -7.57738 0.0294821 0.141346 
-11.1832 96.681 -9.08224 -83.8428 -89.9737 -83.835 -179.011 0.746524 91.6296 -5.25789 0.954279 0.0596821 61.6227 1.4206 0.695221 28.7808 5.57721e-006 2.94402e-006 177.888 0.907057 86.3395 -5.34117 -2.12918 -0.112801 61.5531 -1.36404 -0.682675 28.7808 1.38713e-005 2.01435e-005 0.00182727 6.34022 -89.9951 14.178 0.00101355 0.0154538 2.50707 -3.48913e-006 0.0151513 -20.0281 -0.00654246 0.0169131 -0.0154412 -0.00653978 0.0168879 101.065 -19.0509 -84.8365 -2.08308 27.0074 -12.3542 -6.54744 -28.7147 -9.25491 1.60879 0.092319 1.05778 -79.2154 -21.6935 93.8276 9.45951 -27.6508 -7.32363 5.86397 28.0818 -10.0899 -2.1146 -0.077023 1.63033 2.19886 0.00789848 -0.181078 -7.62506 0.0321385 0.144687 
-11.1842 96.6767 -9.0705 63.9965 -89.9668 64.0263 -179.023 1.24871 91.6412 -6.26802 0.856954 0.059711 62.0567 1.28309 0.624699 28.7808 5.57721e-006 2.94402e-006 177.903 0.902449 86.3678 -5.34551 -2.01033 -0.112793 61.6148 -1.34484 -0.672113 28.7808 1.38713e-005 2.01435e-005 0.000694187 6.34034 -90.0092 14.1932 0.00101355 0.000276057 2.52224 4.00605e-005 0.000270853 -20.0129 -0.00654246 0.000270077 -0.000266072 -0.00653978 0.000262628 101.027 -18.9442 -84.7666 -2.14547 26.7409 -13.0517 -5.65817 -28.5541 -7.4431 0.865229 0.039785 0.111773 -79.2917 -21.7508 93.8039 9.50301 -27.569 -7.68938 5.48605 28.0699 -9.30837 -1.88894 -0.0665408 1.31457 2.14234 -0.0221246 -0.106133 -7.59294 0.0216629 0.160008 
-11.1797 96.6868 -9.06389 168.951 -89.9689 168.953 -179.01 0.740694 91.6233 -5.3183 0.956631 0.0653459 61.603 1.43912 0.705507 28.7808 5.57721e-006 2.94402e-006 177.883 0.81695 86.3276 -5.26055 -2.07269 -0.112797 61.5783 -1.31475 -0.654817 28.7808 1.38713e-005 2.01435e-005 -0.00185472 6.35549 -89.9854 14.1629 0.00101355 0.0242261 2.49194 0.00387075 0.0240801 -20.0432 -0.00654246 0.0239548 -0.0305728 -0.00653978 0.0239218 101.097 -19.0858 -84.756 -2.25217 26.6326 -13.4497 -5.19018 -28.5932 -6.46325 0.531509 0.0206616 -0.292513 -79.2244 -21.6013 93.7954 9.47674 -27.5698 -7.63888 5.52478 28.0209 -9.40381 -1.8277 -0.0634059 1.33133 2.345 0.00984375 -0.224692 -7.73572 0.0380765 0.183947 
-11.1781 96.6831 -9.04984 103.973 -89.9681 103.99 -178.996 0.695679 91.6495 -5.19942 1.1307 0.0744863 61.6313 1.38536 0.675959 28.7808 5.57721e-006 2.94402e-006 177.89 0.827459 86.3442 -5.26513 -2.03639 -0.112795 61.5881 -1.32721 -0.662347 28.7808 1.38713e-005 2.01435e-005 -0.0035505 6.35837 -89.9924 14.1573 0.00101355 0.0198926 2.48632 0.00294195 0.0199621 -20.0489 -0.00654246 0.0182313 -0.0361888 -0.00653978 0.0182235 101.145 -18.9935 -84.6538 -2.14018 26.6705 -13.3433 -5.42107 -28.685 -6.93063 0.684152 0.0278246 -0.255328 -79.203 -21.5844 93.8404 9.41244 -27.5462 -7.83276 5.44722 28.0938 -9.22043 -1.75319 -0.060247 1.24923 2.52802 0.027283 -0.113431 -7.92608 0.0404883 0.117434 
-11.1724 96.6869 -9.03555 74.1078 -89.9627 74.1245 -179.003 0.768033 91.6371 -5.3253 1.00969 0.0682101 61.6227 1.32363 0.637202 28.7808 5.57721e-006 2.94402e-006 177.888 0.787063 86.338 -5.1706 -2.04665 -0.112795 61.5866 -1.29988 -0.647411 28.7808 1.38713e-005 2.01435e-005 -0.00526381 6.36006 -89.9839 14.1563 0.00101355 0.0203336 2.48534 0.00073327 0.0203734 -20.0498 -0.00654246 0.0205395 -0.0371685 -0.00653978 0.0205205 101.16 -18.9769 -84.6278 -2.03296 26.9123 -12.6894 -6.27956 -28.8461 -8.67621 1.06805 0.0584795 0.735773 -79.1992 -21.5179 93.837 9.37964 -27.5353 -7.84019 5.47193 28.2281 -9.23206 -1.73078 -0.0604569 1.09952 2.62017 0.029322 -0.135362 -8.054 0.0428651 0.162428 
-11.1689 96.6873 -9.01965 91.6924 -89.9634 91.7093 -179.001 0.70732 91.6396 -5.24816 1.06299 0.069697 61.6328 1.32796 0.641121 28.7808 5.57721e-006 2.94402e-006 177.885 0.767248 86.3366 -5.17397 -2.04353 -0.112795 61.5868 -1.34238 -0.672736 28.7808 1.38713e-005 2.01435e-005 -0.00247726 6.36209 -89.9856 14.1495 0.00101355 0.0214482 2.4786 -0.00223021 0.0214307 -20.0566 -0.00654246 0.023693 -0.0439207 -0.00653978 0.0236631 101.209 -18.964 -84.5046 -2.1848 26.4174 -14.1987 -4.53091 -28.769 -5.07354 0.0390752 -0.00396066 -0.991769 -79.2114 -21.5202 93.8111 9.37512 -27.5615 -7.85526 5.51934 28.2331 -9.32994 -1.76618 -0.0609092 1.13148 2.74228 0.0269501 -0.0742879 -8.22288 0.0335086 0.104511 
-11.1701 96.6909 -9.00113 117.026 -89.9591 117.043 -179.002 0.702271 91.6383 -5.29746 1.03249 0.0729124 61.6226 1.27199 0.606883 28.7808 5.57721e-006 2.94402e-006 177.885 0.732261 86.3369 -5.16199 -2.01242 -0.112793 61.5877 -1.34715 -0.675746 28.7808 1.38713e-005 2.01435e-005 -0.00250619 6.36662 -89.9831 14.1407 0.00101355 0.02308 2.46971 -0.00542341 0.0230139 -20.0654 -0.00654246 0.0251542 -0.0527928 -0.00653978 0.025137 101.259 -18.9405 -84.3737 -2.16618 26.426 -14.2661 -4.52953 -28.7407 -5.07309 -3.16913e-005 -0.00626839 -1.15293 -79.2021 -21.4791 93.8351 9.36763 -27.5386 -7.90418 5.52088 28.6956 -9.2385 -1.72797 -0.0614406 0.953413 2.87954 0.0482865 -0.0988154 -8.39364 0.0559862 0.154286 
-11.1751 96.6935 -8.97811 117.157 -89.964 117.174 -178.988 0.622821 91.6592 -5.16573 1.16039 0.0765742 61.6298 1.33158 0.644632 28.7808 5.57721e-006 2.94402e-006 177.885 0.709812 86.3391 -5.14084 -1.96761 -0.11279 61.5894 -1.27159 -0.631078 28.7808 1.38713e-005 2.01435e-005 -0.00264219 6.37011 -89.9872 14.1354 0.000969274 0.0250974 2.46445 -0.00832126 0.0250287 -20.0707 -0.00659691 0.0274669 -0.0580695 -0.0065943 0.0274615 101.294 -18.8958 -84.2914 -2.15321 26.43 -14.3114 -4.52692 -28.7083 -5.07047 -0.0990463 -0.00925445 -0.949008 -79.1786 -21.4857 93.8871 9.36779 -27.5761 -7.79766 5.67381 28.8649 -9.51698 -1.66543 -0.0618711 1.01175 2.99198 0.0615704 -0.057256 -8.4814 0.0635784 0.130201 
-11.1798 96.6912 -8.95135 105.97 -89.9491 105.982 -178.996 1.10855 91.6683 -6.204 1.20779 0.0793905 62.0276 1.18478 0.564334 28.7808 5.57721e-006 2.94402e-006 177.881 0.651441 86.3386 -5.0719 -1.99888 -0.112792 61.6105 -1.35418 -0.681464 28.7808 1.38713e-005 2.01435e-005 -0.00715084 6.37353 -89.9832 14.1268 -0.0056019 0.0307926 2.45583 -0.0103987 0.0310064 -20.0793 -0.0146051 0.0299699 -0.0666855 -0.014615 0.0299803 101.342 -18.8852 -84.1796 -2.17775 26.4391 -14.304 -4.54001 -28.9279 -5.07879 -0.182089 -0.0117363 -0.936517 -79.1334 -21.3854 93.9768 9.30914 -27.5953 -7.67296 5.85619 29.0933 -9.83932 -1.77497 -0.0619636 1.10467 3.15253 0.0765542 -0.10754 -8.63075 0.0828249 0.194144 
-11.1839 96.6941 -8.92602 98.3949 -89.9113 98.3848 -178.994 0.585663 91.6445 -5.13922 1.22194 0.0809491 61.6281 1.32616 0.64154 28.7808 5.57721e-006 2.94402e-006 177.875 0.672667 86.3262 -5.13784 -1.96876 -0.11279 61.621 -1.38146 -0.69693 28.7808 1.38713e-005 2.01435e-005 -0.0114754 6.37749 -89.9826 14.1189 -0.0131794 0.0367218 2.44795 -0.0111261 0.0372468 -20.0872 -0.0236045 0.03222 -0.0745642 -0.023633 0.0322309 101.436 -18.7614 -83.9437 -2.09122 26.4098 -14.3455 -4.54069 -28.9616 -5.07732 -0.190289 -0.0124379 -1.04438 -79.0692 -21.3228 94.1232 9.23775 -27.5756 -7.74534 5.85842 29.221 -9.81639 -1.58623 -0.0536982 0.994228 3.35532 0.0765697 -0.105969 -8.82094 0.08227 0.212303 
